# xmcd
#
# Track frame offsets:
#	150
#	13331
#	23077
#	36218
#	49387
#	63173
#	75210
#	89207
#	101271
#	112159
#	124012
#	137684
#	150181
#	161514
#	172043
#	183418
#	193708
#	203225
#	212845
#	222092
#
# Disc length: 3114 seconds
# Revision: 1
# Processed by: cddbd v1.5.2PL0 Copyright (c) Steve Scherf et al.
# Submitted via: dBpowerAMP V12.0
#
DISCID=140c2814
DTITLE=T-Bone Walker - Chronological Classics: 1952-1954
DYEAR=2005
DGENRE=Blues
TTITLE0=Lollie Lou
TTITLE1=Party Girl
TTITLE2=Love Is Just a Gamble
TTITLE3=High Society
TTITLE4=Long Distance Blues
TTITLE5=Got No Use for You
TTITLE6=I'm Still in Love with You
TTITLE7=Railroad Station Blues
TTITLE8=Vida Lee
TTITLE9=My Baby Is Now on My Mind
TTITLE10=Doin' Time
TTITLE11=Bye Bye Baby
TTITLE12=When the Sun Goes Down
TTITLE13=Pony Tail
TTITLE14=Wanderin' Heart
TTITLE15=I'll Always Be in Love with You
TTITLE16=I'll Understand
TTITLE17=Hard Way
TTITLE18=Teen-Age Baby
TTITLE19=Strugglin' Blues
EXTD=
EXTT0=
EXTT1=
EXTT2=
EXTT3=
EXTT4=
EXTT5=
EXTT6=
EXTT7=
EXTT8=
EXTT9=
EXTT10=
EXTT11=
EXTT12=
EXTT13=
EXTT14=
EXTT15=
EXTT16=
EXTT17=
EXTT18=
EXTT19=
PLAYORDER=
